<svg width="50" height="30" viewBox="0 0 50 30" fill="none" xmlns="http://www.w3.org/2000/svg">
  <path fill-rule="evenodd" clip-rule="evenodd" d="M1.27915 9.59532L24.8802 0.281072C25.1008 0.225658 25.3501 0.164952 25.7035 0.281072L49.3045 9.59532C49.7104 9.75596 49.9977 10.1781 49.9977 10.614C49.9977 11.05 49.7104 11.4721 49.3045 11.6328L41.2088 14.8345V23.2242C41.2088 24.3229 40.5233 25.1511 39.6479 25.878C38.7727 26.605 37.6162 27.2575 36.2004 27.8299C33.369 28.9748 29.539 29.7989 25.2918 29.7989C21.0447 29.7989 17.2147 28.9748 14.3832 27.8299C12.9675 27.2575 11.811 26.605 10.9357 25.878C10.0603 25.1511 9.37485 24.3229 9.37485 23.2242V14.8345L5.53282 13.3107V18.5328C6.49728 18.96 7.17941 19.9212 7.17941 21.0326C7.17941 22.5326 5.93777 23.7721 4.4351 23.7721C2.93243 23.7721 1.69079 22.5326 1.69079 21.0326C1.69079 19.9212 2.37292 18.96 3.33738 18.5328V12.4375L1.27915 11.6328C0.873211 11.4721 0.585938 11.05 0.585938 10.614C0.585938 10.1781 0.873211 9.75596 1.27915 9.59532ZM45.9084 10.6226L25.2918 2.47265L4.67523 10.6226L25.2918 18.7554L45.9084 10.6226ZM11.5703 15.6906L24.8802 20.947C25.1409 21.0523 25.4427 21.0523 25.7035 20.947L39.0133 15.6906V23.2242C39.0133 23.2724 38.862 23.6848 38.2415 24.2001C37.621 24.7155 36.6228 25.299 35.36 25.8095C32.8343 26.8308 29.2545 27.6074 25.2918 27.6074C21.3291 27.6074 17.7494 26.8308 15.2236 25.8095C13.9609 25.299 12.9626 24.7155 12.3421 24.2001C11.7216 23.6848 11.5703 23.2722 11.5703 23.2242V15.6906ZM4.98396 21.0326C4.98396 20.717 4.75124 20.4847 4.4351 20.4847C4.11896 20.4847 3.88624 20.717 3.88624 21.0326C3.88624 21.3482 4.11896 21.5805 4.4351 21.5805C4.75124 21.5805 4.98396 21.3482 4.98396 21.0326Z" fill="#A6A9B5" />
</svg>
