<svg width="20" height="20" viewBox="0 0 20 20" fill="none"
  xmlns="http://www.w3.org/2000/svg">
  <path fill-rule="evenodd" clip-rule="evenodd" d="M1 10C1 5.02991 5.02991 1 10 1C14.9701 1 19 5.02991 19 10C19 14.9701 14.9701 19 10 19C5.02991 19 1 14.9701 1 10ZM13.6934 10.6429C13.7818 10.6429 13.8542 10.5706 13.8542 10.4822V9.51787C13.8542 9.42948 13.7818 9.35716 13.6934 9.35716H10.6399V6.30359C10.6399 6.2152 10.5675 6.14287 10.4792 6.14287H9.51487C9.42647 6.14287 9.35415 6.2152 9.35415 6.30359V9.35716H6.30058C6.21219 9.35716 6.13987 9.42948 6.13987 9.51787V10.4822C6.13987 10.5706 6.21219 10.6429 6.30058 10.6429H9.35415V13.6964C9.35415 13.7848 9.42647 13.8572 9.51487 13.8572H10.4792C10.5675 13.8572 10.6399 13.7848 10.6399 13.6964V10.6429H13.6934Z" fill="#0091FF"/>
</svg>
