<svg width="18" height="18" viewBox="0 0 18 18" fill="none" xmlns="http://www.w3.org/2000/svg">
<path fill-rule="evenodd" clip-rule="evenodd" d="M0 9C0 4.02991 4.02991 0 9 0C13.9701 0 18 4.02991 18 9C18 13.9701 13.9701 18 9 18C4.02991 18 0 13.9701 0 9ZM12.6934 9.64287C12.7818 9.64287 12.8542 9.57055 12.8542 9.48216V8.51787C12.8542 8.42948 12.7818 8.35716 12.6934 8.35716H9.63987V5.30359C9.63987 5.2152 9.56754 5.14287 9.47915 5.14287H8.51487C8.42647 5.14287 8.35415 5.2152 8.35415 5.30359V8.35716H5.30058C5.21219 8.35716 5.13987 8.42948 5.13987 8.51787V9.48216C5.13987 9.57055 5.21219 9.64287 5.30058 9.64287H8.35415V12.6964C8.35415 12.7848 8.42647 12.8572 8.51487 12.8572H9.47915C9.56754 12.8572 9.63987 12.7848 9.63987 12.6964V9.64287H12.6934Z" fill="#0091FF"/>
</svg>