<svg width="20" height="20" viewBox="0 0 20 20" fill="none" xmlns="http://www.w3.org/2000/svg">
  <path fill-rule="evenodd" clip-rule="evenodd" d="M18.6293 16.4378L10.8187 2.72355C10.653 2.43135 10.3376 2.25 9.99529 2.25C9.65296 2.25 9.33762 2.43135 9.17189 2.72355L1.37071 16.4378C1.20707 16.7218 1.20999 17.0691 1.37839 17.3505C1.54679 17.6318 1.85544 17.805 2.18941 17.8056H17.8106C18.1446 17.805 18.4532 17.6318 18.6216 17.3505C18.79 17.0691 18.7929 16.7218 18.6293 16.4378ZM10.0022 15.861C9.46522 15.861 9.02995 15.4257 9.02995 14.8888C9.02995 14.3518 9.46522 13.9165 10.0022 13.9165C10.5391 13.9165 10.9744 14.3518 10.9744 14.8888C10.9744 15.4257 10.5391 15.861 10.0022 15.861ZM10.0022 11.9723C10.5391 11.9723 10.9744 11.537 10.9744 11V7.11115C10.9744 6.5742 10.5391 6.13893 10.0022 6.13893C9.46522 6.13893 9.02995 6.5742 9.02995 7.11115V11C9.02995 11.537 9.46522 11.9723 10.0022 11.9723Z" fill="#BA4745"/>
</svg>
