<svg width="20" height="20" viewBox="0 0 20 20" fill="none"
  xmlns="http://www.w3.org/2000/svg">
  <rect opacity="0.01" width="20" height="20" fill="#848899"/>
  <path d="M15.5938 3.42188H14.1054V2.75431C14.1054 2.33772 13.7676 2 13.351 2C12.9345 2 12.5967 2.33772 12.5967 2.75431V3.42188H7.4006V2.75431C7.4006 2.33772 7.06288 2 6.64629 2C6.22969 2 5.89198 2.33772 5.89198 2.75431V3.42188H4.40356C3.15378 3.42188 2.14062 4.43503 2.14062 5.68481V15.895C2.14062 17.1447 3.15378 18.1579 4.40356 18.1579H15.5938C16.8436 18.1579 17.8567 17.1447 17.8567 15.895V5.68481C17.8567 4.43503 16.8436 3.42188 15.5938 3.42188ZM13.84 11.0356L9.5442 15.1447C9.24805 15.4279 8.78004 15.4229 8.49004 15.1334L6.15168 12.7969C5.85694 12.5022 5.85694 12.0243 6.15168 11.7296C6.44642 11.4349 6.92429 11.4349 7.21903 11.7296L9.03315 13.5399L12.8047 9.93999C12.9987 9.74956 13.2801 9.67821 13.5413 9.75322C13.8026 9.82823 14.0033 10.038 14.0667 10.3023C14.1301 10.5666 14.0464 10.8446 13.8475 11.03L13.84 11.0356ZM16.3481 7.21418H3.64925V5.6867C3.64925 5.2701 3.98697 4.93239 4.40356 4.93239H5.89198V5.59995C5.89198 6.01655 6.22969 6.35426 6.64629 6.35426C7.06288 6.35426 7.4006 6.01655 7.4006 5.59995V4.9305H12.5967V5.59807C12.5967 6.01466 12.9345 6.35238 13.351 6.35238C13.7676 6.35238 14.1054 6.01466 14.1054 5.59807V4.9305H15.5938C16.0104 4.9305 16.3481 5.26822 16.3481 5.68481V7.21418Z" fill="#848899"/>
</svg>
