<svg xmlns="http://www.w3.org/2000/svg" xmlns:xlink="http://www.w3.org/1999/xlink" width="16" height="16" viewBox="0 0 16 16">
    <defs>
        <path id="prefix__a" d="M12.122 5.182c.225.225.225.59 0 .814l-4.8 4.803-.018.019c-.225.225-.59.225-.814 0L4.182 8.51c-.225-.224-.225-.589 0-.814.225-.224.59-.224.814 0l1.899 1.899 4.413-4.413c.225-.225.59-.225.814 0z"/>
    </defs>
    <g fill="none" fill-rule="evenodd">
        <path fill="#C7CAD4" fill-rule="nonzero" d="M15.657 7.227c.457.437.457 1.166 0 1.603l-.314.263c-.343.291-.457.787-.286 1.224l.172.379c.228.583-.086 1.254-.686 1.429l-.4.116c-.429.117-.743.525-.772.962l-.028.408c-.029.642-.6 1.108-1.229.992l-.4-.088c-.428-.087-.885.146-1.085.525l-.172.408c-.314.554-1.028.729-1.514.35l-.343-.233c-.371-.263-.857-.263-1.229 0l-.342.233c-.515.379-1.229.204-1.515-.35l-.2-.379c-.2-.408-.657-.612-1.085-.554l-.4.058c-.629.117-1.2-.35-1.229-.99l-.029-.409c-.028-.466-.314-.845-.742-.962l-.4-.117c-.6-.175-.915-.845-.686-1.428l.171-.38c.172-.407.057-.903-.257-1.224l-.314-.291c-.457-.437-.457-1.166 0-1.604l.314-.262c.343-.291.457-.787.286-1.224l-.172-.38c-.228-.582.086-1.253.686-1.428l.4-.117c.429-.116.743-.524.772-.962l.028-.408c.029-.641.6-1.108 1.229-.991l.4.088c.428.087.885-.146 1.085-.525l.2-.38c.286-.582 1-.757 1.515-.378l.343.233c.371.262.857.262 1.228 0L9 .201c.486-.35 1.2-.204 1.486.379l.2.379c.2.408.657.612 1.085.554l.4-.059c.629-.116 1.2.35 1.229.992l.029.408c.028.466.314.845.742.962l.4.116c.6.175.915.846.686 1.429l-.171.379c-.172.408-.057.904.257 1.224l.314.263z"/>
        <use fill="#FFF" fill-rule="nonzero" xlink:href="#prefix__a"/>
    </g>
</svg>
