<svg width="16" height="16" viewBox="0 0 16 16" fill="none" xmlns="http://www.w3.org/2000/svg">
<path fill-rule="evenodd" clip-rule="evenodd" d="M4.87501 0.112578C5.1045 0.0394645 5.34878 0 5.60197 0H5.60756H9.59998H13.5924C14.2403 0 14.8482 0.255634 15.2959 0.703009L15.5371 0.944049L15.5363 0.983294C15.8343 1.39021 16 1.88578 16 2.40758V6.4V10.398C16 11.7203 14.9246 12.7967 13.6039 12.8L13.5974 11.2C14.0456 11.1974 14.4 10.8408 14.4 10.3924V6.4L14.4 2.40198C14.4 2.2031 14.3264 2.01488 14.1943 1.86621L14.1643 1.83616C14.0137 1.68533 13.8128 1.6 13.598 1.6H9.59998H5.60756C5.51965 1.6 5.43528 1.61362 5.35642 1.63889C5.11157 1.71859 4.91681 1.91382 4.83795 2.15924C4.81372 2.2358 4.80047 2.31752 4.79998 2.40261L3.2 2.39608C3.20262 1.32731 3.90742 0.420848 4.87501 0.112578ZM9.6 3.2H3.2C1.43269 3.2 0 4.63269 0 6.4V12.8C0 14.5673 1.43269 16 3.2 16H9.6C11.3673 16 12.8 14.5673 12.8 12.8V6.4C12.8 4.63269 11.3673 3.2 9.6 3.2ZM1.6 6.4C1.6 5.51634 2.31634 4.8 3.2 4.8H9.6C10.4837 4.8 11.2 5.51634 11.2 6.4V12.8C11.2 13.6837 10.4837 14.4 9.6 14.4H3.2C2.31634 14.4 1.6 13.6837 1.6 12.8V6.4ZM9.6 8.13737C9.6 8.24512 9.56146 8.3367 9.48439 8.41212L5.93342 11.8869C5.85634 11.9623 5.76275 12 5.65264 12C5.54254 12 5.44895 11.9623 5.37187 11.8869L3.31561 9.87475C3.23854 9.79933 3.2 9.70774 3.2 9.6C3.2 9.49226 3.23854 9.40067 3.31561 9.32525L3.87716 8.77576C3.95424 8.70034 4.04783 8.66263 4.15794 8.66263C4.26804 8.66263 4.36163 8.70034 4.43871 8.77576L5.65264 9.96768L8.36129 7.31313C8.43837 7.23771 8.53196 7.2 8.64206 7.2C8.75217 7.2 8.84576 7.23771 8.92284 7.31313L9.48439 7.86263C9.56146 7.93805 9.6 8.02963 9.6 8.13737Z" fill="#A6A9B5"/>
</svg>