<svg width="19" height="19" viewBox="0 0 19 19" fill="none" xmlns="http://www.w3.org/2000/svg">
  <path fill-rule="evenodd" clip-rule="evenodd" d="M1.09756 4.69782C3.47421 0.333128 8.9387 -1.27908 13.3039 1.09653C15.4015 2.23808 16.9594 4.1665 17.6347 6.45718C18.3099 8.74787 18.047 11.213 16.904 13.3098C14.5252 17.6733 9.05993 19.2829 4.69586 16.9052C0.331788 14.5275 -1.27909 9.06251 1.09756 4.69782ZM12.9497 5.29289C13.3403 4.90237 13.9734 4.90237 14.364 5.29289C14.7545 5.68342 14.7545 6.31658 14.364 6.70711L8.70711 12.364C8.67807 12.393 8.64769 12.4199 8.61617 12.4446C8.59145 12.4761 8.56457 12.5065 8.53553 12.5355C8.14501 12.9261 7.51184 12.9261 7.12132 12.5355L4.29289 9.70711C3.90237 9.31658 3.90237 8.68342 4.29289 8.29289C4.68342 7.90237 5.31658 7.90237 5.70711 8.29289L7.82843 10.4142L12.9497 5.29289Z" fill="#0091FF" />
</svg>
