<svg width="20" height="20" viewBox="0 0 20 20" fill="none" xmlns="http://www.w3.org/2000/svg">
<path fill-rule="evenodd" clip-rule="evenodd" d="M2.09756 5.69782C4.47421 1.33313 9.9387 -0.279082 14.3039 2.09653C16.4015 3.23808 17.9594 5.1665 18.6347 7.45718C19.3099 9.74787 19.047 12.213 17.904 14.3098C15.5252 18.6733 10.0599 20.2829 5.69586 17.9052C1.33179 15.5275 -0.279085 10.0625 2.09756 5.69782ZM13.9497 6.29289C14.3403 5.90237 14.9734 5.90237 15.364 6.29289C15.7545 6.68342 15.7545 7.31658 15.364 7.70711L9.70711 13.364C9.67807 13.393 9.64769 13.4199 9.61617 13.4446C9.59145 13.4761 9.56457 13.5065 9.53553 13.5355C9.14501 13.9261 8.51184 13.9261 8.12132 13.5355L5.29289 10.7071C4.90237 10.3166 4.90237 9.68342 5.29289 9.29289C5.68342 8.90237 6.31658 8.90237 6.70711 9.29289L8.82843 11.4142L13.9497 6.29289Z" fill="#C7CAD4"/>
<mask id="mask0" mask-type="alpha" maskUnits="userSpaceOnUse" x="1" y="1" width="19" height="19">
<path fill-rule="evenodd" clip-rule="evenodd" d="M2.09756 5.69782C4.47421 1.33313 9.9387 -0.279082 14.3039 2.09653C16.4015 3.23808 17.9594 5.1665 18.6347 7.45718C19.3099 9.74787 19.047 12.213 17.904 14.3098C15.5252 18.6733 10.0599 20.2829 5.69586 17.9052C1.33179 15.5275 -0.279085 10.0625 2.09756 5.69782ZM13.9497 6.29289C14.3403 5.90237 14.9734 5.90237 15.364 6.29289C15.7545 6.68342 15.7545 7.31658 15.364 7.70711L9.70711 13.364C9.67807 13.393 9.64769 13.4199 9.61617 13.4446C9.59145 13.4761 9.56457 13.5065 9.53553 13.5355C9.14501 13.9261 8.51184 13.9261 8.12132 13.5355L5.29289 10.7071C4.90237 10.3166 4.90237 9.68342 5.29289 9.29289C5.68342 8.90237 6.31658 8.90237 6.70711 9.29289L8.82843 11.4142L13.9497 6.29289Z" fill="white"/>
</mask>
<g mask="url(#mask0)">
</g>
</svg>
