<svg width="18" height="19" viewBox="0 0 18 19" fill="none" xmlns="http://www.w3.org/2000/svg">
<path fill-rule="evenodd" clip-rule="evenodd" d="M13.3039 1.09653C8.9387 -1.27908 3.47421 0.333128 1.09756 4.69782C-1.27909 9.06251 0.331788 14.5275 4.69586 16.9052C9.05993 19.2829 14.5252 17.6733 16.904 13.3098C18.047 11.213 18.3099 8.74787 17.6347 6.45718C16.9594 4.1665 15.4015 2.23808 13.3039 1.09653ZM5.46443 6.87874C5.07391 6.48821 5.07391 5.85505 5.46443 5.46452C5.85496 5.074 6.48812 5.074 6.87864 5.46452L8.99991 7.58579L11.1213 5.46443C11.5118 5.07391 12.145 5.07391 12.5355 5.46443C12.926 5.85496 12.926 6.48812 12.5355 6.87864L10.4141 9L12.5355 11.1214C12.926 11.5119 12.926 12.1451 12.5355 12.5356C12.145 12.9261 11.5118 12.9261 11.1213 12.5356L8.99991 10.4142L6.87862 12.5355C6.4881 12.926 5.85493 12.926 5.46441 12.5355C5.07388 12.145 5.07388 11.5118 5.46441 11.1213L7.58569 9L5.46443 6.87874Z" fill="#BA4745"/>
</svg>
