<svg width="10" height="10" viewBox="0 0 10 10" fill="none" xmlns="http://www.w3.org/2000/svg">
<path d="M9.77013 0.229102C10.0531 0.511102 10.0531 0.969102 9.77013 1.2501L6.02113 5.0001L9.77113 8.7501C10.0531 9.0321 10.0531 9.4901 9.77113 9.7711C9.48813 10.0541 9.03113 10.0541 8.74913 9.7711L4.99913 6.0221L1.24913 9.7721C0.967125 10.0541 0.509125 10.0541 0.228125 9.7721C-0.0548748 9.4891 -0.0548748 9.0321 0.228125 8.7501L3.97713 5.0001L0.227125 1.2501C-0.054875 0.968102 -0.054875 0.510102 0.227125 0.229102C0.510125 -0.0538983 0.967125 -0.0538983 1.24913 0.229102L4.99913 3.9781L8.74913 0.228102C9.03113 -0.0538984 9.48913 -0.0538984 9.77013 0.228102V0.229102Z" fill="#339B5E"/>
</svg>
