<svg xmlns="http://www.w3.org/2000/svg"
  xmlns:xlink="http://www.w3.org/1999/xlink" width="18" height="18" viewBox="0 0 18 18">
  <defs>
    <path id="prefix__a" d="M11.5 4.5c1.105 0 2 .895 2 2v8.6c0 1.105-.895 2-2 2H2.9c-1.105 0-2-.895-2-2V6.5c0-1.105.895-2 2-2h8.6zM15.3.9c.994 0 1.8.806 1.8 1.8v9c0 .994-.806 1.8-1.8 1.8h-.9V5.4c0-.994-.806-1.8-1.8-1.8H4.5v-.9c0-.994.806-1.8 1.8-1.8z"/>
  </defs>
  <g fill="none" fill-rule="evenodd">
    <path d="M0 0H18V18H0z"/>
    <use fill="#848899" fill-rule="nonzero" xlink:href="#prefix__a"/>
  </g>
</svg>
