<svg width="20" height="20" viewBox="0 0 20 20" fill="none" xmlns="http://www.w3.org/2000/svg">
    <path fill-rule="evenodd" clip-rule="evenodd" d="M7 1H17C18.1046 1 19 1.89543 19 3V13C19 14.1046 18.1046 15 17 15H16V6C16 4.89543 15.1046 4 14 4H5V3C5 1.89543 5.89543 1 7 1ZM3 5C1.89543 5 1 5.89543 1 7V17C1 18.1046 1.89543 19 3 19H13C14.1046 19 15 18.1046 15 17V7C15 5.89543 14.1046 5 13 5H3Z" fill="#848899" />
    <mask id="mask0" mask-type="alpha" maskUnits="userSpaceOnUse" x="1" y="1" width="18" height="18">
        <path fill-rule="evenodd" clip-rule="evenodd" d="M7 1H17C18.1046 1 19 1.89543 19 3V13C19 14.1046 18.1046 15 17 15H16V6C16 4.89543 15.1046 4 14 4H5V3C5 1.89543 5.89543 1 7 1ZM3 5C1.89543 5 1 5.89543 1 7V17C1 18.1046 1.89543 19 3 19H13C14.1046 19 15 18.1046 15 17V7C15 5.89543 14.1046 5 13 5H3Z" fill="white" />
    </mask>
    <g mask="url(#mask0)"></g>
</svg>
