<svg width="18" height="18" viewBox="0 0 18 18" fill="none" xmlns="http://www.w3.org/2000/svg">
<rect opacity="0.01" width="18" height="18" fill="#A6A9B5"/>
<path d="M14.0336 3.07974H12.694V2.47893C12.694 2.10399 12.3901 1.80005 12.0152 1.80005C11.6402 1.80005 11.3363 2.10399 11.3363 2.47893V3.07974H6.65976V2.47893C6.65976 2.10399 6.35581 1.80005 5.98088 1.80005C5.60594 1.80005 5.302 2.10399 5.302 2.47893V3.07974H3.96242C2.83762 3.07974 1.92578 3.99157 1.92578 5.11638V14.3055C1.92578 15.4303 2.83762 16.3422 3.96242 16.3422H14.0336C15.1584 16.3422 16.0703 15.4303 16.0703 14.3055V5.11638C16.0703 3.99157 15.1584 3.07974 14.0336 3.07974ZM12.4552 9.93211L8.58899 13.6303C8.32247 13.8851 7.90125 13.8806 7.64026 13.6201L5.53573 11.5173C5.27046 11.252 5.27046 10.822 5.53573 10.5567C5.801 10.2914 6.23108 10.2914 6.49634 10.5567L8.12905 12.186L11.5235 8.94604C11.698 8.77465 11.9513 8.71044 12.1864 8.77795C12.4216 8.84545 12.6022 9.03425 12.6592 9.27213C12.7163 9.51002 12.6409 9.76021 12.462 9.92702L12.4552 9.93211ZM14.7125 6.49281H3.28354V5.11808C3.28354 4.74314 3.58749 4.4392 3.96242 4.4392H5.302V5.04001C5.302 5.41494 5.60594 5.71889 5.98088 5.71889C6.35581 5.71889 6.65976 5.41494 6.65976 5.04001V4.4375H11.3363V5.03831C11.3363 5.41324 11.6402 5.71719 12.0152 5.71719C12.3901 5.71719 12.694 5.41324 12.694 5.03831V4.4375H14.0336C14.4086 4.4375 14.7125 4.74145 14.7125 5.11638V6.49281Z" fill="#A6A9B5"/>
</svg>