<svg width="44" height="50" viewBox="0 0 44 50" fill="none" xmlns="http://www.w3.org/2000/svg">
  <mask id="path-1-inside-1" fill="white">
    <path fill-rule="evenodd" clip-rule="evenodd" d="M13.5691 0.635051C12.5022 0.349167 11.4055 0.982331 11.1196 2.04926L10.6754 3.70726H7.24275C6.13818 3.70726 5.24275 4.60269 5.24275 5.70725V23.9821L1.13114 39.3268C0.845261 40.3938 1.47842 41.4905 2.54536 41.7763L5.24275 42.4991V44.2999C5.24275 45.4044 6.13818 46.2999 7.24275 46.2999H19.4273L30.8792 49.3684C31.9461 49.6542 33.0428 49.0211 33.3287 47.9542L33.7719 46.2999H36.5761C37.6807 46.2999 38.5761 45.4044 38.5761 44.2999V28.3706L43.3172 10.6766C43.6031 9.60963 42.9699 8.51296 41.903 8.22708L38.5761 7.33564V5.70726C38.5761 4.60269 37.6807 3.70726 36.5761 3.70726H25.0348L13.5691 0.635051Z" />
  </mask>
  <path fill-rule="evenodd" clip-rule="evenodd" d="M13.5691 0.635051C12.5022 0.349167 11.4055 0.982331 11.1196 2.04926L10.6754 3.70726H7.24275C6.13818 3.70726 5.24275 4.60269 5.24275 5.70725V23.9821L1.13114 39.3268C0.845261 40.3938 1.47842 41.4905 2.54536 41.7763L5.24275 42.4991V44.2999C5.24275 45.4044 6.13818 46.2999 7.24275 46.2999H19.4273L30.8792 49.3684C31.9461 49.6542 33.0428 49.0211 33.3287 47.9542L33.7719 46.2999H36.5761C37.6807 46.2999 38.5761 45.4044 38.5761 44.2999V28.3706L43.3172 10.6766C43.6031 9.60963 42.9699 8.51296 41.903 8.22708L38.5761 7.33564V5.70726C38.5761 4.60269 37.6807 3.70726 36.5761 3.70726H25.0348L13.5691 0.635051Z" fill="white" />
  <path d="M11.1196 2.04926L13.0515 2.5669V2.5669L11.1196 2.04926ZM13.5691 0.635051L13.0515 2.5669L13.5691 0.635051ZM10.6754 3.70726V5.70726H12.21L12.6072 4.22489L10.6754 3.70726ZM5.24275 23.9821L7.1746 24.4998L7.24275 24.2454V23.9821H5.24275ZM1.13114 39.3268L-0.800707 38.8092H-0.800707L1.13114 39.3268ZM2.54536 41.7763L2.02772 43.7082H2.02772L2.54536 41.7763ZM5.24275 42.4991H7.24275V40.9644L5.76039 40.5672L5.24275 42.4991ZM19.4273 46.2999L19.945 44.368L19.6906 44.2999H19.4273V46.2999ZM30.8792 49.3684L31.3968 47.4365H31.3968L30.8792 49.3684ZM33.3287 47.9542L31.3968 47.4365L33.3287 47.9542ZM33.7719 46.2999V44.2999H32.2373L31.8401 45.7822L33.7719 46.2999ZM38.5761 28.3706L36.6442 27.8529L36.5761 28.1072V28.3706H38.5761ZM43.3172 10.6766L41.3853 10.1589V10.1589L43.3172 10.6766ZM41.903 8.22708L41.3853 10.1589V10.1589L41.903 8.22708ZM38.5761 7.33564H36.5761V8.8703L38.0584 9.26749L38.5761 7.33564ZM25.0348 3.70726L24.5171 5.63911L24.7715 5.70726H25.0348V3.70726ZM13.0515 2.5669L13.0515 2.5669L14.0868 -1.2968C11.9529 -1.86857 9.75956 -0.602242 9.18779 1.53163L13.0515 2.5669ZM12.6072 4.22489L13.0515 2.5669L9.18779 1.53163L8.74353 3.18962L12.6072 4.22489ZM7.24275 5.70726H10.6754V1.70726H7.24275V5.70726ZM7.24275 5.70725V5.70726V1.70726C5.03361 1.70726 3.24275 3.49811 3.24275 5.70725H7.24275ZM7.24275 23.9821V5.70725H3.24275V23.9821H7.24275ZM3.063 39.8445L7.1746 24.4998L3.3109 23.4645L-0.800707 38.8092L3.063 39.8445ZM3.063 39.8445L-0.800707 38.8092C-1.37247 40.9431 -0.106147 43.1364 2.02772 43.7082L3.063 39.8445ZM5.76039 40.5672L3.06299 39.8445L2.02772 43.7082L4.72511 44.431L5.76039 40.5672ZM7.24275 44.2999V42.4991H3.24275V44.2999H7.24275ZM7.24275 44.2999H7.24275H3.24275C3.24275 46.509 5.03361 48.2999 7.24275 48.2999V44.2999ZM19.4273 44.2999H7.24275V48.2999H19.4273V44.2999ZM31.3968 47.4365L19.945 44.368L18.9097 48.2317L30.3615 51.3002L31.3968 47.4365ZM31.3968 47.4365L31.3968 47.4365L30.3615 51.3002C32.4954 51.872 34.6888 50.6057 35.2605 48.4718L31.3968 47.4365ZM31.8401 45.7822L31.3968 47.4365L35.2605 48.4718L35.7038 46.8175L31.8401 45.7822ZM36.5761 44.2999H33.7719V48.2999H36.5761V44.2999ZM36.5761 44.2999V44.2999V48.2999C38.7852 48.2999 40.5761 46.509 40.5761 44.2999H36.5761ZM36.5761 28.3706V44.2999H40.5761V28.3706H36.5761ZM41.3853 10.1589L36.6442 27.8529L40.5079 28.8882L45.249 11.1942L41.3853 10.1589ZM41.3853 10.1589V10.1589L45.249 11.1942C45.8208 9.06034 44.5545 6.86699 42.4206 6.29522L41.3853 10.1589ZM38.0584 9.26749L41.3853 10.1589L42.4206 6.29523L39.0937 5.40379L38.0584 9.26749ZM36.5761 5.70726V7.33564H40.5761V5.70726H36.5761ZM36.5761 5.70726H36.5761H40.5761C40.5761 3.49812 38.7852 1.70726 36.5761 1.70726V5.70726ZM25.0348 5.70726H36.5761V1.70726H25.0348V5.70726ZM13.0515 2.5669L24.5171 5.63911L25.5524 1.77541L14.0868 -1.2968L13.0515 2.5669Z" fill="#A6A9B5" mask="url(#path-1-inside-1)" />
  <path d="M12.085 2.30786C12.2279 1.77439 12.7763 1.45781 13.3098 1.60075L41.6436 9.19278C42.177 9.33572 42.4936 9.88405 42.3507 10.4175L32.3622 47.6951C32.2192 48.2286 31.6709 48.5452 31.1374 48.4022L2.80361 40.8102C2.27015 40.6672 1.95357 40.1189 2.09651 39.5854L12.085 2.30786Z" stroke="#A6A9B5" stroke-width="2" />
  <path d="M13.22 19.2363L32.8963 24.5085" stroke="#A6A9B5" stroke-width="2" stroke-linecap="round" />
  <path d="M15.138 12.08L34.8143 17.3522" stroke="#A6A9B5" stroke-width="2" stroke-linecap="round" />
  <path d="M11.3021 26.3886L30.9783 31.6608" stroke="#A6A9B5" stroke-width="2" stroke-linecap="round" />
  <path d="M9.38799 33.5448L29.0643 38.8171" stroke="#A6A9B5" stroke-width="2" stroke-linecap="round" />
</svg>
