<svg width="16" height="16" viewBox="0 0 16 16" fill="none" xmlns="http://www.w3.org/2000/svg">
  <path fill-rule="evenodd" clip-rule="evenodd" d="M1.9319 3.10659C1.6116 2.77147 1.6116 2.24367 1.9319 1.90856C2.27335 1.55131 2.84389 1.55131 3.18534 1.90856L8.26469 7.22284C8.2684 7.22656 8.27208 7.23034 8.27574 7.23416L8.49284 7.4613C8.75516 7.73575 8.75516 8.168 8.49284 8.44245L3.07709 14.1087C2.79745 14.4013 2.3302 14.4013 2.05056 14.1087L1.83346 13.8816C1.57114 13.6071 1.57114 13.1749 1.83346 12.9004L6.5631 7.952L1.9319 3.10659ZM7.5319 1.90856C7.2116 2.24367 7.2116 2.77147 7.5319 3.10659L12.1631 7.952L7.43345 12.9004C7.17114 13.1749 7.17114 13.6071 7.43346 13.8816L7.65056 14.1087C7.9302 14.4013 8.39745 14.4013 8.67709 14.1087L14.0928 8.44245C14.3552 8.168 14.3552 7.73575 14.0928 7.4613L13.8757 7.23416L13.8647 7.22288L8.78534 1.90856C8.44389 1.55131 7.87335 1.55131 7.5319 1.90856Z" fill="#A6A9B5"/>
  <mask id="mask0" mask-type="alpha" maskUnits="userSpaceOnUse" x="1" y="1" width="14" height="14">
    <path fill-rule="evenodd" clip-rule="evenodd" d="M1.9319 3.10659C1.6116 2.77147 1.6116 2.24367 1.9319 1.90856C2.27335 1.55131 2.84389 1.55131 3.18534 1.90856L8.26469 7.22284C8.2684 7.22656 8.27208 7.23034 8.27574 7.23416L8.49284 7.4613C8.75516 7.73575 8.75516 8.168 8.49284 8.44245L3.07709 14.1087C2.79745 14.4013 2.3302 14.4013 2.05056 14.1087L1.83346 13.8816C1.57114 13.6071 1.57114 13.1749 1.83346 12.9004L6.5631 7.952L1.9319 3.10659ZM7.5319 1.90856C7.2116 2.24367 7.2116 2.77147 7.5319 3.10659L12.1631 7.952L7.43345 12.9004C7.17114 13.1749 7.17114 13.6071 7.43346 13.8816L7.65056 14.1087C7.9302 14.4013 8.39745 14.4013 8.67709 14.1087L14.0928 8.44245C14.3552 8.168 14.3552 7.73575 14.0928 7.4613L13.8757 7.23416L13.8647 7.22288L8.78534 1.90856C8.44389 1.55131 7.87335 1.55131 7.5319 1.90856Z" fill="white"/>
  </mask>
  <g mask="url(#mask0)"></g>
</svg>
