<svg width="16" height="16" viewBox="0 0 16 16" fill="none" xmlns="http://www.w3.org/2000/svg">
<path fill-rule="evenodd" clip-rule="evenodd" d="M3.99999 0.799988H12C13.7673 0.799988 15.2 2.23268 15.2 3.99999V12C15.2 13.7673 13.7673 15.2 12 15.2H3.99999C2.23268 15.2 0.799988 13.7673 0.799988 12V3.99999C0.799988 2.23268 2.23268 0.799988 3.99999 0.799988ZM3.99999 2.39999C3.11633 2.39999 2.39999 3.11633 2.39999 3.99999V12C2.39999 12.8836 3.11633 13.6 3.99999 13.6H12C12.8836 13.6 13.6 12.8836 13.6 12V3.99999C13.6 3.11633 12.8836 2.39999 12 2.39999H3.99999ZM11.8516 7.15693C11.9505 7.06897 12 6.9648 12 6.84443C12 6.72406 11.9505 6.6199 11.8516 6.53193C11.7526 6.44397 11.6354 6.39999 11.5 6.39999H4.49999C4.36457 6.39999 4.24738 6.44397 4.14843 6.53193C4.04947 6.6199 3.99999 6.72406 3.99999 6.84443C3.99999 6.9648 4.04947 7.06897 4.14843 7.15693L7.64843 10.268C7.74738 10.356 7.86457 10.4 7.99999 10.4C8.13541 10.4 8.25259 10.356 8.35155 10.268L11.8516 7.15693Z" fill="#A6A9B5"/>
</svg>