<svg xmlns="http://www.w3.org/2000/svg" width="30" height="30" viewBox="0 0 30 30">
    <g fill="none" fill-rule="evenodd">
        <path d="M0 0H30V30H0z"/>
        <path fill="#0091FF" fill-rule="nonzero" d="M7.57 18.044c.6 0 1.12-.491 1.12-1.12 0-.6-.492-1.119-1.12-1.119H3.12c-.601 0-1.12.492-1.12 1.12 0 .6.491 1.12 1.12 1.12h4.45zM8.471 11.491H3.993c-.6 0-1.12.492-1.12 1.12 0 .628.492 1.12 1.12 1.12h4.478c.6 0 1.12-.492 1.12-1.12 0-.628-.52-1.12-1.12-1.12zM8.471 20.147H3.993c-.6 0-1.12.491-1.12 1.12 0 .627.492 1.119 1.12 1.119h4.478c.6 0 1.12-.492 1.12-1.12 0-.628-.52-1.12-1.12-1.12zM19.12 7.068v-1.83h1.283c.6 0 1.12-.49 1.12-1.119 0-.628-.492-1.119-1.12-1.119h-4.778c-.601 0-1.12.491-1.12 1.12 0 .627.492 1.119 1.12 1.119h1.283v1.83c-2.157.245-4.178 1.173-5.734 2.675-.437.437-.464 1.12-.027 1.556.437.437 1.12.465 1.556.028 1.42-1.366 3.331-2.13 5.324-2.13 4.26 0 7.727 3.468 7.727 7.7 0 4.259-3.467 7.727-7.727 7.727-1.993 0-3.877-.765-5.324-2.13-.437-.41-1.147-.41-1.556.027-.41.437-.41 1.147.027 1.556 1.857 1.775 4.287 2.758 6.853 2.758 5.488 0 9.939-4.45 9.939-9.938-.027-5.079-3.905-9.284-8.847-9.83z"/>
        <path fill="#0091FF" fill-rule="nonzero" d="M18 11.491c-.6 0-1.12.492-1.12 1.12v4.314c0 .6.492 1.12 1.12 1.12h3.686c.6 0 1.12-.492 1.12-1.12 0-.6-.492-1.12-1.12-1.12h-2.567v-3.194c0-.628-.518-1.12-1.119-1.12z"/>
    </g>
</svg>
