<svg xmlns="http://www.w3.org/2000/svg" xmlns:xlink="http://www.w3.org/1999/xlink" width="18" height="14" viewBox="0 0 18 14">
    <defs>
        <path id="prefix__a" d="M10 3C6.056 3 2.8 6.71 1.548 8.355 1.195 8.82 1.002 9.401 1 10c.002.6.195 1.18.548 1.645C2.8 13.29 6.056 17 10 17s7.2-3.71 8.452-5.355c.353-.465.546-1.046.548-1.645-.002-.6-.195-1.18-.548-1.645C17.2 6.71 13.944 3 10 3zm0 11c-2.21 0-4-1.79-4-4s1.79-4 4-4 4 1.79 4 4-1.79 4-4 4zm2-4c0 1.105-.895 2-2 2s-2-.895-2-2 .895-2 2-2 2 .895 2 2z"/>
    </defs>
    <g fill="none" fill-rule="evenodd" transform="translate(-1 -3)">
        <path d="M0 0H20V20H0z"/>
        <use fill="#848899" fill-rule="nonzero" xlink:href="#prefix__a"/>
    </g>
</svg>
