<svg width="20" height="20" viewBox="0 0 20 20" fill="none" xmlns="http://www.w3.org/2000/svg">
<path fill-rule="evenodd" clip-rule="evenodd" d="M6.22917 1.59998C5.13265 1.59998 4.18412 2.29886 3.79984 3.29523H1.61407C1.08499 3.29523 0.699219 3.72516 0.699219 4.25712C0.699219 4.80506 1.12699 5.219 1.63972 5.219H3.82106C4.18957 6.22168 5.16639 6.91426 6.25672 6.91426C7.37669 6.91426 8.32698 6.21667 8.71249 5.219H18.1887C18.7015 5.219 19.1292 4.80506 19.1292 4.25712C19.1292 3.70917 18.7015 3.29523 18.1887 3.29523H8.70691C8.30134 2.30064 7.35253 1.59998 6.22917 1.59998ZM14.1227 7.31426C13.0269 7.31426 12.0786 8.01332 11.6936 9.00952H1.63972C1.09261 9.00952 0.699219 9.43142 0.699219 9.9714C0.699219 10.5194 1.12699 10.9333 1.63972 10.9333H11.689C12.0575 11.9359 13.0342 12.6285 14.1237 12.6285C15.2436 12.6285 16.1939 11.931 16.5794 10.9333H18.1887C18.7015 10.9333 19.1292 10.5194 19.1292 9.9714C19.1292 9.42346 18.7015 9.00952 18.1887 9.00952H16.5794C16.1939 8.01186 15.2436 7.31426 14.1237 7.31426H14.1227ZM9.37652 12.9714C8.28 12.9714 7.33147 13.6703 6.94719 14.6667H1.63972C1.09261 14.6667 0.699219 15.0886 0.699219 15.6285C0.699219 16.1765 1.12699 16.5904 1.63972 16.5904H6.96839C7.33677 17.593 8.31267 18.2857 9.40312 18.2857C10.5231 18.2857 11.4734 17.5881 11.8589 16.5904H18.1887C18.7015 16.5904 19.1292 16.1765 19.1292 15.6285C19.1292 15.0806 18.7015 14.6667 18.1887 14.6667H11.8325C11.4475 13.6688 10.4962 12.9714 9.37652 12.9714ZM7.27896 4.25717C7.27896 3.67448 6.80681 3.2238 6.25582 3.2238C5.70481 3.2238 5.23267 3.67448 5.23267 4.25717C5.23267 4.83985 5.70481 5.29054 6.25582 5.29054C6.80681 5.29054 7.27896 4.83985 7.27896 4.25717ZM15.1725 9.97145C15.1725 9.38877 14.7004 8.93808 14.1494 8.93808C13.5737 8.93808 13.1272 9.38877 13.1272 9.97145C13.1272 10.5541 13.5984 11.0048 14.1494 11.0048C14.7004 11.0048 15.1725 10.5541 15.1725 9.97145ZM10.4254 15.6286C10.4254 15.0459 9.95417 14.5952 9.40317 14.5952C8.85217 14.5952 8.40661 15.0459 8.38001 15.6286C8.38001 16.2113 8.85217 16.662 9.40317 16.662C9.95322 16.662 10.4254 16.2113 10.4254 15.6286Z" fill="#0091FF"/>
</svg>
