<svg width="20" height="20" viewBox="0 0 20 20" fill="none"
  xmlns="http://www.w3.org/2000/svg">
  <path fill-rule="evenodd" clip-rule="evenodd" d="M2.0358 5.09707L2.40724 5.77779C3.94098 2.71609 7.09032 0.625 10.7055 0.625C15.8176 0.625 20 4.8274 20 9.99998C20 15.1725 15.8176 19.375 10.7055 19.375C6.33013 19.375 2.63854 16.3018 1.66437 12.1628C1.57382 11.7795 1.69051 11.376 1.97047 11.1043C2.25043 10.8327 2.65112 10.7341 3.02157 10.8458C3.39203 10.9575 3.67596 11.2624 3.76639 11.6458C4.50797 14.7967 7.31867 17.1691 10.7055 17.1691C14.6651 17.1691 17.8389 13.9644 17.8389 9.99998C17.8389 6.03552 14.6651 2.83088 10.7055 2.83088C8.25734 2.83088 6.11407 4.07022 4.83005 5.94151C5.36069 5.75148 5.94542 6.0086 6.17463 6.53276C6.40384 7.05692 6.20091 7.6729 5.708 7.9492L3.0657 9.32787C2.54716 9.59719 1.9128 9.39913 1.6306 8.8798L0.144842 6.17416C-0.046096 5.83668 -0.0483995 5.42141 0.138783 5.08174C0.325965 4.74208 0.67485 4.52844 1.05656 4.51975C1.46344 4.50859 1.84195 4.73175 2.0358 5.09707ZM9.20386 5.17947C9.41947 4.9524 9.71463 4.82206 10.0244 4.81713C10.3405 4.81208 10.6451 4.93802 10.8686 5.16619C11.0922 5.39437 11.2156 5.70528 11.2106 6.02792V10.2191L13.6925 12.2495C14.1965 12.661 14.2782 13.4116 13.875 13.926C13.4719 14.4404 12.7365 14.5238 12.2326 14.1123L9.31267 11.728C9.03563 11.5015 8.87448 11.1588 8.87468 10.7966V6.02792C8.86984 5.71174 8.98824 5.40654 9.20386 5.17947Z" fill="currentColor"/>
  <path d="M1.18359 4.53589L5.82126 6.01495L3.0992 7.8598L1.18359 4.53589Z" fill="currentColor"/>
</svg>
