<svg xmlns="http://www.w3.org/2000/svg" width="30" height="30" viewBox="0 0 30 30">
    <g fill="none" fill-rule="evenodd">
        <path d="M0 0H30V30H0z"/>
        <path fill="#0091FF" fill-rule="nonzero" stroke="#0091FF" stroke-width=".5" d="M25.444 8.272h-6.53V6.835c0-1.608-1.372-2.917-3.057-2.917h-11.3C2.87 3.918 1.5 5.227 1.5 6.835v7.56c0 1.608 1.371 2.917 3.056 2.917h.325v3.167c0 .72.472.961.617 1.019.076.03.199.065.353.065.205 0 .516-.064.836-.37l4.006-3.823c.027-.02.114-.055.142-.058h.906v1.437c0 1.608 1.371 2.916 3.056 2.916h4.363c.033.004.121.039.143.054l4.01 3.827c.259.247.54.372.837.372.333 0 .625-.16.8-.439.113-.178.17-.396.17-.646v-3.168h.324c1.685 0 3.056-1.309 3.056-2.917v-7.56c0-1.608-1.371-2.916-3.056-2.916zM11.74 11.189v4.714h-.906c-.408 0-.894.192-1.182.467l-3.297 3.146V17.16c0-.693-.59-1.257-1.317-1.257h-.483c-.871 0-1.58-.677-1.58-1.509v-7.56c0-.83.709-1.507 1.58-1.507h11.301c.871 0 1.58.676 1.58 1.508v1.437h-2.64c-1.685 0-3.056 1.308-3.056 2.917zm15.283 7.56c0 .83-.709 1.507-1.58 1.507h-.482c-.727 0-1.319.565-1.319 1.258v2.356l-3.296-3.147c-.288-.275-.774-.468-1.18-.468h-4.37c-.872 0-1.58-.676-1.58-1.507v-7.56c0-.83.708-1.507 1.58-1.507h10.647c.871 0 1.58.676 1.58 1.508v7.56h0z"/>
    </g>
</svg>
