<svg width="18" height="14" viewBox="0 0 18 14" fill="none" xmlns="http://www.w3.org/2000/svg">
    <path d="M17 0.155713C16.7576 0.0522208 16.4975 -0.000709368 16.235 7.17899e-06H1.72547C1.47648 0.000362115 1.22998 0.0509673 1 0.148943L8.98021 7L17 0.155713Z" fill="#A6A9B5"/>
    <path d="M17.7686 1.0282L9.41143 8.64913C9.29577 8.75423 9.1502 8.8116 9 8.81128C8.8498 8.8116 8.70423 8.75423 8.58857 8.64913L0.244286 1C0.0878634 1.31117 0.00394959 1.65989 0 2.01518V11.885C0 13.0531 0.863451 14 1.92857 14H16.0714C17.1365 14 18 13.0531 18 11.885V2.01518C17.9974 1.67042 17.9179 1.33159 17.7686 1.0282Z" fill="#A6A9B5"/>
</svg>