<svg xmlns="http://www.w3.org/2000/svg" width="182" height="172" viewBox="0 0 182 172">
    <g fill="none" fill-rule="evenodd" transform="translate(1)">
        <circle cx="90" cy="86" r="86" fill="#F5F6FA" fill-rule="nonzero"/>
        <g transform="translate(0 26)">
            <rect width="180" height="120" fill="#FFF" fill-rule="nonzero" stroke="#DFE0E6" rx="4"/>
            <path stroke="#DFE0E6" stroke-linecap="square" d="M0 40h180M0 80h180" opacity=".7"/>
            <path fill="#DFE0E6" fill-rule="nonzero" d="M12 14h31c1.105 0 2 .895 2 2s-.895 2-2 2H12c-1.105 0-2-.895-2-2s.895-2 2-2zM12 54h31c1.105 0 2 .895 2 2s-.895 2-2 2H12c-1.105 0-2-.895-2-2s.895-2 2-2zM12 22h84c1.105 0 2 .895 2 2s-.895 2-2 2H12c-1.105 0-2-.895-2-2s.895-2 2-2zM12 62h84c1.105 0 2 .895 2 2s-.895 2-2 2H12c-1.105 0-2-.895-2-2s.895-2 2-2zM12 94h31c1.105 0 2 .895 2 2s-.895 2-2 2H12c-1.105 0-2-.895-2-2s.895-2 2-2zM12 102h84c1.105 0 2 .895 2 2s-.895 2-2 2H12c-1.105 0-2-.895-2-2s.895-2 2-2z"/>
            <circle cx="156" cy="20" r="8" fill="#0091FF" fill-rule="nonzero"/>
            <circle cx="156" cy="60" r="8" fill="#0091FF" fill-rule="nonzero"/>
            <circle cx="156" cy="100" r="8" fill="#0091FF" fill-rule="nonzero"/>
        </g>
        <path fill="#FFF" fill-rule="nonzero" d="M155.466 48.705c-.019.025-.04.048-.061.07-.293.3-.769.3-1.062 0l-2.123-2.167c-.293-.3-.293-.785 0-1.084.293-.3.768-.3 1.062 0l1.592 1.626 3.844-3.926c.288-.293.758-.298 1.051-.01l.011.01c.295.302.295.783 0 1.084l-4.246 4.336c-.022.022-.045.043-.068.061zM155.466 88.705c-.019.025-.04.048-.061.07-.293.3-.769.3-1.062 0l-2.123-2.167c-.293-.3-.293-.785 0-1.084.293-.3.768-.3 1.062 0l1.592 1.626 3.844-3.926c.288-.293.758-.298 1.051-.01l.011.01c.295.302.295.783 0 1.084l-4.246 4.336c-.022.022-.045.043-.068.061zM155.466 128.705c-.019.025-.04.048-.061.07-.293.3-.769.3-1.062 0l-2.123-2.167c-.293-.3-.293-.785 0-1.084.293-.3.768-.3 1.062 0l1.592 1.626 3.844-3.926c.288-.293.758-.298 1.051-.01l.011.01c.295.302.295.783 0 1.084l-4.246 4.336c-.022.022-.045.043-.068.061z"/>
    </g>
</svg>
