<svg width="34" height="48" viewBox="0 0 34 48" fill="none" xmlns="http://www.w3.org/2000/svg">
  <path fill-rule="evenodd" clip-rule="evenodd" d="M6.45516 4.60938H2C0.89543 4.60938 0 5.5048 0 6.60937V45.0015C0 46.1061 0.895428 47.0015 2 47.0015H31.1765C32.281 47.0015 33.1765 46.1061 33.1765 45.0015V6.60938C33.1765 5.50481 32.281 4.60938 31.1765 4.60938H26.7178C26.7217 4.66064 26.7237 4.71244 26.7237 4.76471V6.40937H31.1765C31.2869 6.40937 31.3765 6.49891 31.3765 6.60938V45.0015C31.3765 45.112 31.2869 45.2015 31.1765 45.2015H2C1.88954 45.2015 1.8 45.112 1.8 45.0015V6.60937C1.8 6.49892 1.88954 6.40937 2 6.40937H6.44922V4.76471C6.44922 4.71244 6.45122 4.66064 6.45516 4.60938Z" fill="#A6A9B5" />
  <mask id="path-2-inside-1" fill="white">
    <path fill-rule="evenodd" clip-rule="evenodd" d="M21.1024 2.76471H24.7237C25.8283 2.76471 26.7237 3.66014 26.7237 4.76471V8.13725C26.7237 9.24182 25.8283 10.1373 24.7237 10.1373H16.5865H8.44922C7.34465 10.1373 6.44922 9.24183 6.44922 8.13725V4.76471C6.44922 3.66014 7.34465 2.76471 8.44922 2.76471H12.0705C12.9095 1.12354 14.6168 0 16.5865 0C18.5562 0 20.2635 1.12354 21.1024 2.76471Z" />
  </mask>
  <path d="M21.1024 2.76471L19.4997 3.58401L20.001 4.56471H21.1024V2.76471ZM12.0705 2.76471V4.56471H13.1719L13.6732 3.58401L12.0705 2.76471ZM21.1024 4.56471H24.7237V0.964706H21.1024V4.56471ZM24.7237 4.56471C24.8342 4.56471 24.9237 4.65425 24.9237 4.76471H28.5237C28.5237 2.66603 26.8224 0.964706 24.7237 0.964706V4.56471ZM24.9237 4.76471V8.13725H28.5237V4.76471H24.9237ZM24.9237 8.13725C24.9237 8.24771 24.8342 8.33725 24.7237 8.33725V11.9373C26.8224 11.9373 28.5237 10.2359 28.5237 8.13725H24.9237ZM24.7237 8.33725H16.5865V11.9373H24.7237V8.33725ZM16.5865 8.33725H8.44922V11.9373H16.5865V8.33725ZM8.44922 8.33725C8.33876 8.33725 8.24922 8.24771 8.24922 8.13725H4.64922C4.64922 10.2359 6.35053 11.9373 8.44922 11.9373V8.33725ZM8.24922 8.13725V4.76471H4.64922V8.13725H8.24922ZM8.24922 4.76471C8.24922 4.65425 8.33876 4.56471 8.44922 4.56471V0.964706C6.35053 0.964706 4.64922 2.66603 4.64922 4.76471H8.24922ZM8.44922 4.56471H12.0705V0.964706H8.44922V4.56471ZM13.6732 3.58401C14.2165 2.52121 15.3188 1.8 16.5865 1.8V-1.8C13.9147 -1.8 11.6024 -0.274125 10.4678 1.9454L13.6732 3.58401ZM16.5865 1.8C17.8541 1.8 18.9564 2.52121 19.4997 3.58401L22.7052 1.9454C21.5705 -0.274125 19.2583 -1.8 16.5865 -1.8V1.8Z" fill="#A6A9B5" mask="url(#path-2-inside-1)" />
  <path fill-rule="evenodd" clip-rule="evenodd" d="M13.699 15.0196C13.3521 14.6653 12.7817 14.6653 12.4348 15.0196L7.96233 19.5858L6.10447 17.689C5.76245 17.3398 5.20792 17.3398 4.86589 17.689C4.52387 18.0382 4.52387 18.6044 4.86589 18.9536L7.34304 21.4827C7.68507 21.8319 8.2396 21.8319 8.58162 21.4827C8.60925 21.4545 8.63464 21.4249 8.6578 21.394C8.68805 21.3703 8.7171 21.3444 8.74474 21.3161L13.699 16.2579C14.036 15.9139 14.036 15.3636 13.699 15.0196Z" fill="#A6A9B5" />
  <path fill-rule="evenodd" clip-rule="evenodd" d="M13.699 25.1563C13.3521 24.8021 12.7817 24.8021 12.4348 25.1563L7.96233 29.7226L6.10447 27.8257C5.76245 27.4765 5.20792 27.4765 4.86589 27.8257C4.52387 28.1749 4.52387 28.7411 4.86589 29.0903L7.34304 31.6194C7.68507 31.9686 8.2396 31.9686 8.58162 31.6194C8.60925 31.5912 8.63464 31.5616 8.6578 31.5308C8.68805 31.507 8.7171 31.4811 8.74474 31.4529L13.699 26.3946C14.036 26.0506 14.036 25.5003 13.699 25.1563Z" fill="#A6A9B5" />
  <path fill-rule="evenodd" clip-rule="evenodd" d="M13.699 35.293C13.3521 34.9388 12.7817 34.9388 12.4348 35.293L7.96233 39.8593L6.10447 37.9624C5.76245 37.6132 5.20792 37.6132 4.86589 37.9624C4.52387 38.3116 4.52387 38.8778 4.86589 39.227L7.34304 41.7561C7.68507 42.1053 8.2396 42.1053 8.58162 41.7561C8.60925 41.7279 8.63464 41.6983 8.6578 41.6675C8.68805 41.6438 8.7171 41.6178 8.74474 41.5896L13.699 36.5313C14.036 36.1873 14.036 35.637 13.699 35.293Z" fill="#A6A9B5" />
  <path d="M16.5898 18.8905H27.745" stroke="# " stroke-width="1.8" stroke-linecap="round" />
  <path d="M16.5898 29.0311H27.745" stroke="#A6A9B5" stroke-width="1.8" stroke-linecap="round" />
  <path d="M16.5898 39.1678H27.745" stroke="#A6A9B5" stroke-width="1.8" stroke-linecap="round" />
</svg>
