<svg xmlns="http://www.w3.org/2000/svg" xmlns:xlink="http://www.w3.org/1999/xlink" width="18" height="18" viewBox="0 0 18 18">
    <defs>
        <path id="popkjpgw1a" d="M10.78 10.97c.383-.406 1.023-.426 1.43-.043l.044.044 2.951 3.138c.414.44.414 1.127 0 1.567-.383.407-1.023.427-1.43.044l-.044-.044-2.951-3.138c-.414-.44-.414-1.127 0-1.567zm-2.616 1.932C5.312 12.902 3 10.462 3 7.45 3 4.44 5.312 2 8.164 2s5.164 2.44 5.164 5.45c0 1.446-.544 2.833-1.513 3.855-.968 1.022-2.281 1.597-3.651 1.597zm0-9.345c-2.037 0-3.689 1.744-3.689 3.894 0 2.15 1.652 3.893 3.689 3.893s3.688-1.743 3.688-3.893c0-1.033-.388-2.023-1.08-2.753-.692-.73-1.63-1.14-2.608-1.14z"/>
    </defs>
    <g fill="none" fill-rule="evenodd">
        <path d="M0 0H18V18H0z"/>
        <use fill="currentColor" fill-rule="nonzero" xlink:href="#popkjpgw1a"/>
    </g>
</svg>
