<svg xmlns="http://www.w3.org/2000/svg" width="17" height="18" viewBox="0 0 17 18">
    <g fill="none" fill-rule="evenodd">
        <path d="M0 0H20V20H0z" transform="translate(-1 -1)"/>
        <path fill="#848899" fill-rule="nonzero" d="M10 4.167c-3.222 0-5.833 2.611-5.833 5.833S6.778 15.833 10 15.833s5.833-2.611 5.833-5.833S13.222 4.167 10 4.167zm0 8.333c-1.38 0-2.5-1.12-2.5-2.5S8.62 7.5 10 7.5s2.5 1.12 2.5 2.5c0 .663-.263 1.299-.732 1.768-.47.469-1.105.732-1.768.732z" transform="translate(-1 -1)"/>
        <path fill="#848899" fill-rule="nonzero" d="M8.333 1.667H11.666V5H8.333zM8.333 15H11.666V18.333H8.333z" transform="translate(-1 -1)"/>
        <path fill="#848899" fill-rule="nonzero" d="M14.053 5.055L17.397 5.055 17.397 8.4 14.053 8.4z" transform="translate(-1 -1) rotate(60.113 15.725 6.728)"/>
        <path fill="#848899" fill-rule="nonzero" d="M2.582 5.003L5.915 5.003 5.915 8.336 2.582 8.336z" transform="translate(-1 -1) rotate(-60 4.249 6.67)"/>
        <path fill="#848899" fill-rule="nonzero" d="M14.08 11.668L17.414 11.668 17.414 15.002 14.08 15.002z" transform="translate(-1 -1) rotate(-60 15.747 13.335)"/>
        <path fill="#848899" fill-rule="nonzero" d="M2.528 11.675L5.872 11.675 5.872 15.02 2.528 15.02z" transform="translate(-1 -1) rotate(60.113 4.2 13.347)"/>
    </g>
</svg>
