<svg width="128" height="28" viewBox="0 0 128 28" fill="none" xmlns="http://www.w3.org/2000/svg">
  <path d="M127.032 21.4403H123.054V12.5119C123.054 10.872 122.028 9.53579 120.039 9.53579C117.751 9.53579 116.232 11.7223 116.232 14.2328V21.4403H112.254V6.60014H116.232V8.68547C117.408 6.98482 119.269 6.17498 121.536 6.17498C124.487 6.17498 127.032 8.19957 127.032 11.3174V21.4403ZM9.30286 5.89154C8.9393 6.92408 9.30286 7.97686 10.03 8.66522C10.7143 9.31309 13.3234 11.8033 14.799 11.8033C16.2747 11.8033 18.8623 9.31309 19.5681 8.66522C20.2952 7.97686 20.6588 6.92408 20.2952 5.89154C19.7819 4.43384 15.5261 0.688359 14.799 0C14.0719 0.688359 9.81612 4.43384 9.30286 5.89154ZM23.3534 8.80694C22.2627 8.46276 21.1506 8.80694 20.4235 9.4953C19.7392 10.1432 17.1087 12.6132 17.1087 14.0101C17.1087 15.4071 19.7392 17.8568 20.4235 18.5249C21.1506 19.2133 22.2627 19.5575 23.3534 19.2133C24.8932 18.7274 28.8496 14.6985 29.5767 14.0101C28.8496 13.3015 24.9145 9.29284 23.3534 8.80694ZM6.22329 19.1931C7.31397 19.5372 8.42604 19.1931 9.15316 18.5047C9.8375 17.8568 12.468 15.3868 12.468 14.0101C12.468 12.6334 9.8375 10.1432 9.15316 9.4953C8.42604 8.80694 7.31397 8.46276 6.22329 8.80694C4.68351 9.29284 0.72712 13.3015 0 14.0101C0.72712 14.6985 4.68351 18.7072 6.22329 19.1931ZM20.2952 22.1085C20.6588 21.0759 20.2952 20.0231 19.5681 19.3348C18.8623 18.6869 16.2533 16.1967 14.799 16.1967C13.3448 16.1967 10.7357 18.6869 10.03 19.3348C9.30286 20.0231 8.9393 21.0759 9.30286 22.1085C9.81612 23.5662 14.0719 27.3116 14.799 28C15.5261 27.3116 19.7819 23.5662 20.2952 22.1085ZM109.667 13.3825C109.667 9.33333 106.416 6.01302 101.754 6.01302C96.8994 6.01302 93.5418 9.21186 93.5418 13.9291C93.5418 18.6464 97.3699 21.8655 101.69 21.8655C105.668 21.8655 107.935 20.2458 109.325 17.5329L106.031 15.9537C105.24 17.6341 104.064 18.5857 101.861 18.5857C99.4657 18.5857 97.819 17.128 97.5624 14.8402H109.688V13.3825H109.667ZM97.6907 12.0665C98.2467 10.1229 99.7651 8.92842 101.711 8.92842C103.657 8.92842 105.197 10.1229 105.732 12.0665H97.6907ZM48.6315 6.60014V8.09834C47.7119 6.94432 45.9796 6.17498 43.9907 6.17498C39.628 6.17498 36.1849 9.09038 36.1849 14.0304C36.1849 18.9704 39.628 21.8655 44.0549 21.8655C46.0652 21.8655 47.8402 21.0759 48.6315 19.8814V21.4606H52.6093V6.60014H48.6315ZM44.6323 18.5654C42.1516 18.5654 40.3765 16.7636 40.3765 14.0101C40.3765 11.2567 42.1516 9.45481 44.6323 9.45481C47.1131 9.45481 48.8881 11.2567 48.8881 14.0101C48.8881 16.7636 47.1131 18.5654 44.6323 18.5654ZM56.1379 6.60014V27.5343H60.1157V20.1041C60.9925 21.1569 62.7034 21.8453 64.6923 21.8453C69.0978 21.8453 72.5623 18.9501 72.5623 14.0101C72.5623 9.07014 69.1192 6.15474 64.7564 6.15474C62.7462 6.15474 60.9711 7.00506 60.1157 8.13883V6.5799H56.1379V6.60014ZM59.8591 14.0304C59.8591 11.2769 61.6341 9.47505 64.1149 9.47505C66.5956 9.47505 68.3707 11.2769 68.3707 14.0304C68.3707 16.7838 66.5956 18.5857 64.1149 18.5857C61.6341 18.5654 59.8591 16.7636 59.8591 14.0304ZM75.0003 6.60014V27.5343H78.978V20.1041C79.8549 21.1569 81.5657 21.8453 83.5546 21.8453C87.9601 21.8453 91.4246 18.9501 91.4246 14.0101C91.4246 9.07014 87.9815 6.15474 83.6188 6.15474C81.6085 6.15474 79.8335 7.00506 78.978 8.13883V6.5799H75.0003V6.60014ZM78.7214 14.0304C78.7214 11.2769 80.4964 9.47505 82.9772 9.47505C85.458 9.47505 87.233 11.2769 87.233 14.0304C87.233 16.7838 85.458 18.5857 82.9772 18.5857C80.4964 18.5654 78.7214 16.7636 78.7214 14.0304Z" fill="#EF4126"/>
</svg>