<svg xmlns="http://www.w3.org/2000/svg" width="30" height="30" viewBox="0 0 30 30">
    <g fill="none" fill-rule="evenodd">
        <path d="M0 0H30V30H0z"/>
        <path fill="#0091FF" fill-rule="nonzero" stroke="#0091FF" stroke-width=".8" d="M5.867 25.085h2.466c.5 0 .934-.234 1.267-.567.567.7 1.433 1.133 2.4 1.133H21.467c2.1 0 3.466-1.1 3.7-3.033l1.266-8.033v-.134-.033c0-1.733-1.4-3.1-3.1-3.1H18.533V7.885c0-1.467-.433-2.534-1.266-3.134-1.334-1-3.167-.433-3.267-.4-.233.067-.4.3-.4.534V8.75c0 1.267-.6 2.334-1.767 3.167-.933.667-1.9.933-1.9.933-.1.034-.2.1-.266.167-.3-.433-.8-.7-1.367-.7H5.833c-.933 0-1.7.767-1.7 1.7v9.367c.067.933.8 1.7 1.734 1.7zm4.266-11.067c.067 0 .1 0 .167-.033.2-.067 4.5-1.3 4.5-5.234v-3.4c.467-.066 1.267-.1 1.833.3.534.4.8 1.134.8 2.234v4c0 .3.267.566.567.566h5.367c1.1 0 1.966.867 1.966 1.967v.033l-1.266 8v.034c-.167 1.366-1.034 2.033-2.567 2.033H12.033c-1.1 0-1.966-.867-1.966-1.967v-8.5-.066c0 .033.033.033.066.033zm-4.8.033c0-.3.234-.533.534-.533h2.466c.3 0 .534.233.534.533v9.367c0 .3-.234.533-.534.533H5.867c-.3 0-.534-.233-.534-.533v-9.367z"/>
    </g>
</svg>
