<svg width="20" height="20" viewBox="0 0 20 20" fill="none"
  xmlns="http://www.w3.org/2000/svg">
  <g>
    <path d="M9.5365 16.203L5.01874 18.7607C4.35053 19.1389 4.30926 19.1103 4.44016 18.373L5.39632 12.9868L5.48179 12.5053L5.13348 12.1605L1.37309 8.437C0.820439 7.88978 0.86013 7.77198 1.6376 7.66508L6.71162 6.96741L7.22475 6.89685L7.43931 6.42783L9.69136 1.50493C9.99935 0.831683 10.0046 0.831697 10.3125 1.50493L12.5646 6.42783L12.7792 6.89685L13.2923 6.96741L18.3663 7.66508C19.1375 7.77112 19.1789 7.89425 18.6308 8.437L14.8704 12.1605L14.5221 12.5053L14.6076 12.9868L15.5637 18.373C15.6944 19.1092 15.6523 19.1383 14.9852 18.7607L10.4674 16.203L10.002 15.9395L9.5365 16.203Z" fill="#848899"/>
  </g>
</svg>
