<svg width="46" height="48" viewBox="0 0 46 48" fill="none" xmlns="http://www.w3.org/2000/svg">
  <path fill-rule="evenodd" clip-rule="evenodd" d="M15.7735 30C15.1101 30 14.4567 29.9558 13.8161 29.8703C13.1749 29.7871 12.5322 29.6606 11.8912 29.4889C4.6093 27.5377 0.0530642 20.4131 1.04531 13.061C1.98979 5.70252 8.23473 0 15.7735 0C17.0709 0 18.3299 0.168876 19.5302 0.486004C19.572 0.491571 19.614 0.499901 19.6558 0.511114C27.566 2.63065 32.2599 10.8547 30.1192 18.8439C30.1052 18.8961 30.091 18.9481 30.0765 19H28.0084C28.0798 18.7802 28.1459 18.5573 28.2065 18.3314C28.4926 17.2634 28.6379 16.1905 28.6537 15.133C28.648 15.0895 28.645 15.0451 28.645 15C28.645 7.8315 22.8712 2 15.7735 2C9.86564 2 4.87493 6.04033 3.36778 11.529C3.36208 11.5754 3.35308 11.6221 3.34061 11.6686C3.19325 12.2186 3.08326 12.7698 3.00906 13.3195C2.93845 13.8698 2.90202 14.4307 2.90202 15C2.90202 21.5879 7.77844 27.0466 14.0773 27.8876C15.9325 28.1283 17.7722 27.9504 19.4883 27.4173V29.4926C18.3318 29.8017 17.1319 29.9722 15.9125 29.9902C15.8671 29.9967 15.8207 30 15.7735 30Z" fill="#A6A9B5" />
  <path fill-rule="evenodd" clip-rule="evenodd" d="M15.7701 7C13.5864 7 11.314 8.44157 10.9147 11.6498C10.8996 11.7174 10.8916 11.7877 10.8915 11.8599L10.8867 11.9113L10.8928 11.9118C10.9189 12.4237 11.3423 12.8308 11.8607 12.8308C12.3322 12.8308 12.7251 12.4941 12.812 12.0481L12.8324 12.0496C13.0967 9.10858 15.2928 9 15.7433 9C16.4399 9 18.683 9.1845 18.683 11.5625C18.683 12.817 17.9582 13.427 16.877 14.3175C16.8294 14.3567 16.7809 14.3964 16.7317 14.4366L16.7315 14.4367L16.7315 14.4367C15.7614 15.2302 14.5364 16.2322 14.5364 18V19H14.5426C14.5928 19.5011 15.0157 19.8923 15.53 19.8923C16.078 19.8923 16.5223 19.448 16.5223 18.9C16.5223 18.8639 16.5204 18.8283 16.5166 18.7933V18C16.5166 17.1877 17.0984 16.7105 17.9549 16.008C18.011 15.962 18.0682 15.9151 18.1265 15.867L18.2599 15.7576C19.3455 14.8683 20.7226 13.7403 20.7226 11.5625C20.7226 8.8335 18.7315 7 15.7701 7Z" fill="#A6A9B5" />
  <path d="M10.9147 11.6498L11.0128 11.6716L11.014 11.6621L10.9147 11.6498ZM10.8915 11.8599L10.9915 11.8692L10.9915 11.8601L10.8915 11.8599ZM10.8867 11.9113L10.7872 11.902L10.7776 12.0038L10.8796 12.0111L10.8867 11.9113ZM10.8928 11.9118L10.9927 11.9067L10.9882 11.8183L10.8999 11.812L10.8928 11.9118ZM12.812 12.0481L12.8191 11.9484L12.7308 11.9421L12.7139 12.029L12.812 12.0481ZM12.8324 12.0496L12.8253 12.1493L12.9232 12.1563L12.932 12.0585L12.8324 12.0496ZM16.877 14.3175L16.9406 14.3947L16.9406 14.3947L16.877 14.3175ZM16.7317 14.4366L16.7949 14.5141L16.795 14.514L16.7317 14.4366ZM16.7315 14.4367L16.7873 14.5203L16.7947 14.5142L16.7315 14.4367ZM16.7315 14.4367L16.6758 14.3531L16.6682 14.3593L16.7315 14.4367ZM14.5364 19H14.4364V19.1H14.5364V19ZM14.5426 19L14.6422 18.99L14.6331 18.9H14.5426V19ZM16.5166 18.7933H16.416L16.4172 18.8039L16.5166 18.7933ZM17.9549 16.008L17.8915 15.9307L17.8915 15.9307L17.9549 16.008ZM18.1265 15.867L18.0631 15.7897L18.0629 15.7898L18.1265 15.867ZM18.2599 15.7576L18.1965 15.6803L18.1964 15.6803L18.2599 15.7576ZM11.014 11.6621C11.4066 8.50685 13.6339 7.1 15.7701 7.1V6.9C13.5389 6.9 11.2213 8.3763 10.8155 11.6374L11.014 11.6621ZM10.9915 11.8601C10.9916 11.7952 10.9988 11.7321 11.0123 11.6715L10.8171 11.628C10.8005 11.7027 10.7917 11.7802 10.7915 11.8597L10.9915 11.8601ZM10.9863 11.9206L10.9911 11.8692L10.792 11.8506L10.7872 11.902L10.9863 11.9206ZM10.8999 11.812L10.8938 11.8116L10.8796 12.0111L10.8857 12.0115L10.8999 11.812ZM11.8607 12.7308C11.3958 12.7308 11.0161 12.3657 10.9927 11.9067L10.7929 11.9168C10.8218 12.4817 11.2888 12.9308 11.8607 12.9308V12.7308ZM12.7139 12.029C12.6359 12.4289 12.2835 12.7308 11.8607 12.7308V12.9308C12.381 12.9308 12.8142 12.5594 12.9102 12.0673L12.7139 12.029ZM12.8395 11.9498L12.8191 11.9484L12.8049 12.1479L12.8253 12.1493L12.8395 11.9498ZM15.7433 8.9C15.5112 8.9 14.8273 8.92761 14.1655 9.33686C13.4978 9.74973 12.8675 10.5418 12.7328 12.0406L12.932 12.0585C13.0616 10.6163 13.6615 9.88363 14.2706 9.50697C14.8856 9.12668 15.525 9.1 15.7433 9.1V8.9ZM18.783 11.5625C18.783 10.9517 18.6387 10.4753 18.4063 10.1057C18.174 9.73637 17.8574 9.47935 17.5212 9.30114C16.8517 8.94631 16.0972 8.9 15.7433 8.9V9.1C16.086 9.1 16.8013 9.14594 17.4275 9.47786C17.7392 9.64303 18.0268 9.878 18.237 10.2121C18.4469 10.5459 18.583 10.9843 18.583 11.5625H18.783ZM16.9406 14.3947C18.0168 13.5083 18.783 12.8703 18.783 11.5625H18.583C18.583 12.7637 17.8996 13.3457 16.8134 14.2403L16.9406 14.3947ZM16.795 14.514C16.8441 14.4738 16.8928 14.434 16.9406 14.3947L16.8135 14.2403C16.766 14.2794 16.7176 14.319 16.6684 14.3592L16.795 14.514ZM16.7947 14.5142L16.7949 14.5141L16.6685 14.3591L16.6683 14.3592L16.7947 14.5142ZM16.787 14.5199L16.787 14.5199L16.6761 14.3535L16.6761 14.3535L16.787 14.5199ZM14.6364 18C14.6364 16.2853 15.8204 15.3111 16.7948 14.5141L16.6682 14.3593C15.7024 15.1493 14.4364 16.1791 14.4364 18H14.6364ZM14.6364 19V18H14.4364V19H14.6364ZM14.5426 18.9H14.5364V19.1H14.5426V18.9ZM15.53 19.7923C15.0676 19.7923 14.6872 19.4405 14.6422 18.99L14.4431 19.01C14.4984 19.5616 14.9638 19.9923 15.53 19.9923V19.7923ZM16.4223 18.9C16.4223 19.3928 16.0228 19.7923 15.53 19.7923V19.9923C16.1332 19.9923 16.6223 19.5033 16.6223 18.9H16.4223ZM16.4172 18.8039C16.4206 18.8354 16.4223 18.8675 16.4223 18.9H16.6223C16.6223 18.8604 16.6202 18.8212 16.616 18.7826L16.4172 18.8039ZM16.4166 18V18.7933H16.6166V18H16.4166ZM17.8915 15.9307C17.4657 16.2799 17.0973 16.5815 16.8372 16.8995C16.5736 17.2217 16.4166 17.5657 16.4166 18H16.6166C16.6166 17.6219 16.7505 17.3212 16.992 17.0262C17.2368 16.7269 17.5875 16.4387 18.0183 16.0853L17.8915 15.9307ZM18.0629 15.7898C18.0047 15.8378 17.9475 15.8847 17.8915 15.9307L18.0183 16.0853C18.0744 16.0394 18.1317 15.9923 18.1901 15.9442L18.0629 15.7898ZM18.1964 15.6803L18.0631 15.7897L18.19 15.9443L18.3233 15.8349L18.1964 15.6803ZM20.6226 11.5625C20.6226 13.6887 19.2837 14.7897 18.1965 15.6803L18.3232 15.835C19.4073 14.947 20.8226 13.7919 20.8226 11.5625H20.6226ZM15.7701 7.1C17.2302 7.1 18.4427 7.55177 19.2891 8.33143C20.1348 9.11042 20.6226 10.2235 20.6226 11.5625H20.8226C20.8226 10.1725 20.3149 9.00433 19.4246 8.18432C18.5351 7.36498 17.2714 6.9 15.7701 6.9V7.1Z" fill="#A6A9B5" />
  <circle cx="15.5537" cy="22.292" r="1.06154" fill="#A6A9B5" stroke="#A6A9B5" stroke-width="0.4" />
  <path fill-rule="evenodd" clip-rule="evenodd" d="M23.6963 19H41.5184C43.7026 19 45.2313 20.7945 45.2313 23V40C45.2313 42.206 43.7026 44 41.5184 44H36.0727L33.3994 47.5995C33.2128 47.8515 32.9187 48 32.6073 48C32.2959 48 32.0019 47.8515 31.8152 47.5995L29.1419 44H23.6963C21.5126 44 19.4883 42.206 19.4883 40V23C19.4883 20.7945 21.5126 19 23.6963 19ZM41.5186 42C42.6102 42 43.2513 41.1025 43.2513 40V23C43.2513 21.897 42.6102 21 41.5186 21H23.6965C22.6044 21 21.4688 21.897 21.4688 23V40C21.4688 41.1025 22.6044 42 23.6965 42H29.6372C29.9486 42 30.2427 42.1485 30.4293 42.4005L32.6076 45.333L34.7858 42.4005C34.9724 42.1485 35.2665 42 35.5779 42H41.5186Z" fill="#A6A9B5" />
  <path fill-rule="evenodd" clip-rule="evenodd" d="M38.7559 27.1316C38.2984 26.6645 37.5463 26.6645 37.0887 27.1316L31.191 33.153L28.7411 30.6517C28.2901 30.1912 27.5588 30.1912 27.1078 30.6517C26.6568 31.1122 26.6568 31.8588 27.1078 32.3193L30.3744 35.6544C30.8254 36.1148 31.5566 36.1148 32.0077 35.6544C32.0441 35.6172 32.0776 35.5781 32.1081 35.5375C32.148 35.5062 32.1863 35.472 32.2228 35.4347L38.7559 28.7646C39.2002 28.3109 39.2002 27.5853 38.7559 27.1316Z" fill="#A6A9B5" />
</svg>
