<svg xmlns="http://www.w3.org/2000/svg" width="20" height="20" viewBox="0 0 20 20">
    <g fill="none" fill-rule="evenodd">
        <path d="M0 0H20V20H0z"/>
        <g fill-rule="nonzero">
            <path fill="#848899" d="M4 5H0c0-.167.054-.329.153-.457L3.487.257C3.614.094 3.802 0 4 0v5zm10.592-5H5.32v5.52c0 .424-.336.77-.76.77H0v12.142c0 .424.344.768.768.768h13.824c.424 0 .768-.344.768-.768V.768c0-.424-.344-.768-.768-.768z" transform="translate(2)"/>
            <g fill="#FFF" transform="translate(2) translate(3.733 7.467)">
                <circle cx="4.096" cy="2.048" r="2.048"/>
                <path d="M8.192 7.68v.512c0 .283-.23.512-.512.512H.512c-.283 0-.512-.23-.512-.512V7.68c0-1.697 1.375-3.072 3.072-3.072H5.12c1.697 0 3.072 1.375 3.072 3.072z"/>
            </g>
        </g>
    </g>
</svg>
