<svg xmlns="http://www.w3.org/2000/svg" width="30" height="30" viewBox="0 0 30 30">
    <g fill="none" fill-rule="evenodd">
        <path d="M0 0H30V30H0z" />
        <path fill="#0091FF" fill-rule="nonzero" stroke="#0091FF" stroke-width=".5" d="M23.25 2.918H6.75C4.682 2.918 3 4.6 3 6.668v16.5c0 2.068 1.682 3.75 3.75 3.75h16.5c2.068 0 3.75-1.682 3.75-3.75v-16.5c0-2.068-1.682-3.75-3.75-3.75zm0 1.5c1.24 0 2.25 1.02 2.25 2.273v2.227h-21V6.691c0-1.254 1.01-2.273 2.25-2.273h16.5zm0 21H6.75c-1.24 0-2.25-1.01-2.25-2.25v-12.75h21v12.75c0 1.24-1.01 2.25-2.25 2.25z" />
        <path fill="#0091FF" fill-rule="nonzero" stroke="#0091FF" stroke-width=".5" d="M6.22 6.136c-.291.29-.288.777 0 1.065.728.694 1.75-.37 1.057-1.065-.277-.278-.78-.278-1.057 0zM10.285 7.2c.29-.305.29-.764-.008-1.064-.277-.278-.772-.278-1.057 0-.291.29-.288.777 0 1.065.306.292.762.286 1.065 0zM13.277 7.2c.295-.294.303-.76 0-1.064-.277-.278-.772-.278-1.057 0-.291.29-.288.777 0 1.065.313.297.775.282 1.057 0zM17.91 19.776c.527-.737.84-1.636.84-2.608 0-2.482-2.018-4.5-4.5-4.5s-4.5 2.018-4.5 4.5 2.018 4.5 4.5 4.5c.968 0 1.864-.31 2.599-.832l2.242 2.345c.296.294.77.29 1.06-.002.293-.293.293-.767 0-1.06l-2.24-2.343zm-6.66-2.608c0-1.654 1.345-3 3-3s3 1.346 3 3c0 1.655-1.345 3-3 3s-3-1.345-3-3z" />
    </g>
</svg>
